<svg width="16" height="16" viewBox="0 0 16 16" fill="none" xmlns="http://www.w3.org/2000/svg">
<path d="M14.8287 0H0.617863C0.276108 0 0 0.276108 0 0.617863V14.8287C0 15.1705 0.276108 15.4466 0.617863 15.4466H14.8287C15.1705 15.4466 15.4466 15.1705 15.4466 14.8287V0.617863C15.4466 0.276108 15.1705 0 14.8287 0ZM13.0446 4.50847H11.8108C10.8435 4.50847 10.6562 4.96801 10.6562 5.6438V7.13246H12.9655L12.6643 9.46296H10.6562V15.4466H8.24848V9.46489H6.23463V7.13246H8.24848V5.41403C8.24848 3.41949 9.46683 2.33243 11.247 2.33243C12.1005 2.33243 12.8322 2.39615 13.0466 2.42511V4.50847H13.0446Z" fill="white"/>
</svg>
